<svg xmlns="http://www.w3.org/2000/svg" xmlns:xlink="http://www.w3.org/1999/xlink" xmlns:lucid="lucid" width="955" height="905.36"><g transform="translate(-404.9999999999999 -47.83292069944599)" lucid:page-tab-id="0_0"><path d="M0 0h1760v1360H0z" fill-opacity="0"/><path d="M790 455.5a8 8 0 0 1 8-8h164a8 8 0 0 1 8 8v129a8 8 0 0 1-8 8H798a8 8 0 0 1-8-8z" fill="#fff"/><path d="M790 522.5v36h180v-36" fill="#e6e6e6"/><path d="M790 487.5v-32a8 8 0 0 1 8-8h164a8 8 0 0 1 8 8v32" fill="#1071e5"/><path d="M790 455.5a8 8 0 0 1 8-8h164a8 8 0 0 1 8 8v129a8 8 0 0 1-8 8H798a8 8 0 0 1-8-8zM790 487.5h180M826 487.5v105M910 487.5v105" stroke="#3a414a" fill="none"/><use xlink:href="#a" transform="matrix(1,0,0,1,800,447.5) translate(61.78395061728395 25.15555555555556)"/><use xlink:href="#b" transform="matrix(1,0,0,1,795,490) translate(1.148148148148147 20.155555555555555)"/><use xlink:href="#c" transform="matrix(1,0,0,1,830.9999999999998,490) translate(8.413580246913579 20.155555555555555)"/><use xlink:href="#d" transform="matrix(1,0,0,1,915.0000000000001,490) translate(15.641975308641973 20.155555555555555)"/><use xlink:href="#e" transform="matrix(1,0,0,1,830.9999999999998,525) translate(15.302469135802465 20.155555555555555)"/><use xlink:href="#f" transform="matrix(1,0,0,1,915.0000000000001,525) translate(3.3209876543209838 20.155555555555555)"/><use xlink:href="#g" transform="matrix(1,0,0,1,830.9999999999998,560) translate(16.339506172839503 20.155555555555555)"/><use xlink:href="#f" transform="matrix(1,0,0,1,915.0000000000001,560) translate(3.3209876543209838 20.155555555555555)"/><path d="M453.15 75.83a8 8 0 0 1 8-8h836.75a8 8 0 0 1 8 8V101a8 8 0 0 1-8 8H461.15a8 8 0 0 1-8-8z" stroke="#000" stroke-opacity="0" stroke-width="2" fill="#fff" fill-opacity="0"/><use xlink:href="#h" transform="matrix(1,0,0,1,457.1465527853429,71.83292069944599) translate(263.66925925925926 25.782777777777778)"/><use xlink:href="#i" transform="matrix(1,0,0,1,457.1465527853429,71.83292069944599) translate(337.8198765432099 25.782777777777778)"/><use xlink:href="#j" transform="matrix(1,0,0,1,457.1465527853429,71.83292069944599) translate(422.24086419753087 25.782777777777778)"/><use xlink:href="#k" transform="matrix(1,0,0,1,457.1465527853429,71.83292069944599) translate(532.7383950617284 25.782777777777778)"/><path d="M633.85 107.65h496.2M633.87 107.65h-1.02M1130 107.65h1.04" stroke="#a9afb8" stroke-width="2" fill="none"/><path d="M453.15 117a8 8 0 0 1 8-8h837.7a8 8 0 0 1 8 8v2.83a8 8 0 0 1-8 8h-837.7a8 8 0 0 1-8-8z" stroke="#000" stroke-opacity="0" stroke-width="2" fill="#fff" fill-opacity="0"/><use xlink:href="#l" transform="matrix(1,0,0,1,457.1465527853434,112.9881446563448) translate(278.23335390946505 14.917037037037037)"/><use xlink:href="#m" transform="matrix(1,0,0,1,457.1465527853434,112.9881446563448) translate(331.7279012345679 14.917037037037037)"/><use xlink:href="#n" transform="matrix(1,0,0,1,457.1465527853434,112.9881446563448) translate(402.2608230452675 14.917037037037037)"/><use xlink:href="#o" transform="matrix(1,0,0,1,457.1465527853434,112.9881446563448) translate(465.0606172839506 14.917037037037037)"/><use xlink:href="#p" transform="matrix(1,0,0,1,457.1465527853434,112.9881446563448) translate(477.51010288065845 14.917037037037037)"/><use xlink:href="#q" transform="matrix(1,0,0,1,457.1465527853434,112.9881446563448) translate(514.9010493827161 14.917037037037037)"/><use xlink:href="#r" transform="matrix(1,0,0,1,457.1465527853434,112.9881446563448) translate(540.3948765432099 14.917037037037037)"/><path d="M460 490.5a8 8 0 0 1 8-8h154a8 8 0 0 1 8 8v59a8 8 0 0 1-8 8H468a8 8 0 0 1-8-8z" fill="#fff"/><path d="M460 522.5v-32a8 8 0 0 1 8-8h154a8 8 0 0 1 8 8v32" fill="#1071e5"/><path d="M460 490.5a8 8 0 0 1 8-8h154a8 8 0 0 1 8 8v59a8 8 0 0 1-8 8H468a8 8 0 0 1-8-8zM460 522.5h170M500.67 522.5v35M578.67 522.5v35" stroke="#3a414a" fill="none"/><use xlink:href="#s" transform="matrix(1,0,0,1,470,482.5) translate(56.25925925925927 25.15555555555556)"/><use xlink:href="#b" transform="matrix(1,0,0,1,465,525) translate(3.648148148148147 20.155555555555555)"/><use xlink:href="#t" transform="matrix(1,0,0,1,505.6666666666666,525) translate(5.8827160493827115 20.155555555555555)"/><use xlink:href="#d" transform="matrix(1,0,0,1,583.6666666666666,525) translate(11.641975308641975 20.155555555555555)"/><path d="M721 798.74l-.16 2-.47 1.98-.78 1.9-1.08 1.73-1.32 1.55-1.56 1.32-1.74 1.07-1.88.77-2 .48-1.98.15h-3.54v-2h3.46l1.76-.13 1.68-.4 1.6-.67 1.46-.9 1.32-1.12 1.12-1.3.9-1.48.66-1.6.4-1.68.14-1.75v-96.04h2zm48.5-222.7h-37.46l-1.76.13-1.68.4-1.6.66-1.46.9-1.32 1.12-1.12 1.32-.9 1.47-.66 1.6-.4 1.67-.14 1.77v81.03h-2V587l.16-2 .47-2 .78-1.87 1.08-1.74 1.32-1.56 1.56-1.33 1.74-1.05 1.88-.8 2-.46 1.98-.17h37.54z" stroke="#3a414a" stroke-width=".05" fill="#3a414a"/><path fill="#fff"/><path d="M780.5 585.03h-2v-20h2z" stroke="#3a414a" stroke-width=".05" fill="#3a414a"/><path fill="#fff"/><path d="M789.5 576.03h-20v-2h20z" stroke="#3a414a" stroke-width=".05" fill="#3a414a"/><path fill="#fff"/><path d="M770.5 585.03h-2v-20h2z" stroke="#3a414a" stroke-width=".05" fill="#3a414a"/><path d="M665.95 800.7l20 10-20 10" fill="#fff" fill-opacity="0"/><path d="M688.18 810.7l-21.8 10.9-.88-1.8 18.2-9.1-18.2-9.1.9-1.8z" stroke="#3a414a" stroke-width=".05" fill="#3a414a"/><path fill="#fff"/><path d="M685.95 811.7h-20v-2h20z" stroke="#3a414a" stroke-width=".05" fill="#3a414a"/><path d="M705.95 810.7l-.5 3.16-1.43 2.75-2.17 2.17-2.74 1.42-3.15.5-3.16-.5-2.76-1.43-2.16-2.16-1.42-2.74-.5-3.16.5-3.16 1.42-2.74 2.16-2.17 2.75-1.42 3.15-.5 3.16.5 2.75 1.43 2.17 2.17 1.42 2.74.5 3.16" fill="#fff"/><path d="M699.42 800.25l3.03 1.57 2.38 2.38 1.57 3.03.53 3.3-.98.17.98.16-.53 3.32-1.56 3.03-2.4 2.4-3.02 1.56-3.47.56-3.48-.56-3.03-1.57-2.38-2.4-1.56-3.02-.57-3.48.57-3.47 1.56-3.03 2.38-2.38 3.03-1.57 3.48-.56zm-6.32 1.93l-2.46 1.27-1.95 1.95-1.28 2.46-.46 2.84.46 2.85 1.27 2.46 1.94 1.96 2.46 1.27 2.85.46 2.84-.47 2.46-1.27 1.94-1.95 1.28-2.45.45-2.85-.45-2.84-1.28-2.46-1.94-1.95-2.47-1.27-2.85-.46z" stroke="#3a414a" stroke-width=".05" fill="#3a414a"/><path d="M684.3 685.37a16.27 16.27 0 0 1 16.26-16.27h38.88a16.27 16.27 0 0 1 16.26 16.27 16.27 16.27 0 0 1-16.26 16.26h-38.88a16.27 16.27 0 0 1-16.26-16.26z" stroke="#3a414a" stroke-width="2" fill-opacity="0"/><use xlink:href="#u" transform="matrix(1,0,0,1,696.2962962962963,673.1006397335848) translate(0.004999999999999005 17.422222222222224)"/><path d="M1140 743.7a8 8 0 0 1 8-8h164a8 8 0 0 1 8 8v164a8 8 0 0 1-8 8h-164a8 8 0 0 1-8-8z" fill="#fff"/><path d="M1140 810.7v36h180v-36M1140 880.7v27a8 8 0 0 0 8 8h164a8 8 0 0 0 8-8v-27" fill="#e6e6e6"/><path d="M1140 775.7v-32a8 8 0 0 1 8-8h164a8 8 0 0 1 8 8v32" fill="#1071e5"/><path d="M1140 743.7a8 8 0 0 1 8-8h164a8 8 0 0 1 8 8v164a8 8 0 0 1-8 8h-164a8 8 0 0 1-8-8zM1140 775.7h180M1182.67 775.7v140M1260 775.7v140" stroke="#3a414a" fill="none"/><use xlink:href="#v" transform="matrix(1,0,0,1,1150,735.6918136236336) translate(62.72222222222223 25.15555555555556)"/><use xlink:href="#b" transform="matrix(1,0,0,1,1145,778.1918136236336) translate(4.648148148148147 20.155555555555555)"/><use xlink:href="#w" transform="matrix(1,0,0,1,1187.6666666666663,778.1918136236336) translate(5.3827160493827115 20.155555555555555)"/><use xlink:href="#d" transform="matrix(1,0,0,1,1265.0000000000002,778.1918136236336) translate(15.641975308641973 20.155555555555555)"/><use xlink:href="#x" transform="matrix(1,0,0,1,1145,813.1918136236336) translate(5.166666666666666 20.155555555555555)"/><use xlink:href="#c" transform="matrix(1,0,0,1,1187.6666666666663,813.1918136236336) translate(4.913580246913579 20.155555555555555)"/><use xlink:href="#d" transform="matrix(1,0,0,1,1265.0000000000002,813.1918136236336) translate(15.641975308641973 20.155555555555555)"/><use xlink:href="#y" transform="matrix(1,0,0,1,1187.6666666666663,848.1918136236336) translate(20.222222222222218 20.155555555555555)"/><use xlink:href="#f" transform="matrix(1,0,0,1,1265.0000000000002,848.1918136236336) translate(3.3209876543209838 20.155555555555555)"/><use xlink:href="#z" transform="matrix(1,0,0,1,1187.6666666666663,883.1918136236336) translate(4.8641975308641925 20.155555555555555)"/><use xlink:href="#f" transform="matrix(1,0,0,1,1265.0000000000002,883.1918136236336) translate(3.3209876543209838 20.155555555555555)"/><path d="M445 203a8 8 0 0 1 8-8h184a8 8 0 0 1 8 8v94a8 8 0 0 1-8 8H453a8 8 0 0 1-8-8z" fill="#fff"/><path d="M445 270v27a8 8 0 0 0 8 8h184a8 8 0 0 0 8-8v-27" fill="#e6e6e6"/><path d="M445 235v-32a8 8 0 0 1 8-8h184a8 8 0 0 1 8 8v32" fill="#1071e5"/><path d="M445 203a8 8 0 0 1 8-8h184a8 8 0 0 1 8 8v94a8 8 0 0 1-8 8H453a8 8 0 0 1-8-8zM445 235h200M537 235v70M609 235v70" stroke="#3a414a" fill="none"/><use xlink:href="#A" transform="matrix(1,0,0,1,455,195) translate(48.09876543209876 25.15555555555556)"/><use xlink:href="#B" transform="matrix(1,0,0,1,450,237.5) translate(12.876543209876534 20.155555555555555)"/><use xlink:href="#C" transform="matrix(1,0,0,1,450,237.5) translate(46.45679012345679 20.155555555555555)"/><use xlink:href="#c" transform="matrix(1,0,0,1,541.9999999999999,237.5) translate(1.913580246913579 20.155555555555555)"/><use xlink:href="#d" transform="matrix(1,0,0,1,613.9999999999999,237.5) translate(4.141975308641975 20.155555555555555)"/><use xlink:href="#B" transform="matrix(1,0,0,1,450,272.5) translate(12.876543209876534 20.155555555555555)"/><use xlink:href="#C" transform="matrix(1,0,0,1,450,272.5) translate(46.45679012345679 20.155555555555555)"/><use xlink:href="#t" transform="matrix(1,0,0,1,541.9999999999999,272.5) translate(2.3827160493827115 20.155555555555555)"/><use xlink:href="#d" transform="matrix(1,0,0,1,613.9999999999999,272.5) translate(4.141975308641975 20.155555555555555)"/><path d="M425 726.2a8 8 0 0 1 8-8h224a8 8 0 0 1 8 8v199a8 8 0 0 1-8 8H433a8 8 0 0 1-8-8z" fill="#fff"/><path d="M425 793.2v36h240v-36M425 863.2v36h240v-36" fill="#e6e6e6"/><path d="M425 758.2v-32a8 8 0 0 1 8-8h224a8 8 0 0 1 8 8v32" fill="#1071e5"/><path d="M425 726.2a8 8 0 0 1 8-8h224a8 8 0 0 1 8 8v199a8 8 0 0 1-8 8H433a8 8 0 0 1-8-8zM425 758.2h240M471.67 758.2v175M583.67 758.2v175" stroke="#3a414a" fill="none"/><use xlink:href="#D" transform="matrix(1,0,0,1,434.9999999999999,718.1918136236337) translate(73.9753086419753 25.15555555555556)"/><use xlink:href="#b" transform="matrix(1,0,0,1,429.9999999999999,760.6918136236337) translate(6.648148148148147 20.155555555555555)"/><use xlink:href="#E" transform="matrix(1,0,0,1,476.6666666666665,760.6918136236337) translate(3.1481481481481346 20.155555555555555)"/><use xlink:href="#d" transform="matrix(1,0,0,1,588.6666666666665,760.6918136236337) translate(26.641975308641975 20.155555555555555)"/><use xlink:href="#x" transform="matrix(1,0,0,1,429.9999999999999,795.6918136236337) translate(7.166666666666666 20.155555555555555)"/><use xlink:href="#t" transform="matrix(1,0,0,1,476.6666666666665,795.6918136236337) translate(22.38271604938271 20.155555555555555)"/><use xlink:href="#d" transform="matrix(1,0,0,1,588.6666666666665,795.6918136236337) translate(26.641975308641975 20.155555555555555)"/><use xlink:href="#x" transform="matrix(1,0,0,1,429.9999999999999,830.6918136236337) translate(7.166666666666666 20.155555555555555)"/><use xlink:href="#c" transform="matrix(1,0,0,1,476.6666666666665,830.6918136236337) translate(21.91358024691358 20.155555555555555)"/><use xlink:href="#d" transform="matrix(1,0,0,1,588.6666666666665,830.6918136236337) translate(26.641975308641975 20.155555555555555)"/><use xlink:href="#z" transform="matrix(1,0,0,1,476.6666666666665,865.6918136236337) translate(21.864197530864192 20.155555555555555)"/><use xlink:href="#f" transform="matrix(1,0,0,1,588.6666666666665,865.6918136236337) translate(14.320987654320984 20.155555555555555)"/><use xlink:href="#F" transform="matrix(1,0,0,1,476.6666666666665,900.6918136236337) translate(10.086419753086414 20.155555555555555)"/><use xlink:href="#G" transform="matrix(1,0,0,1,588.6666666666665,900.6918136236337) translate(1.9753086419752997 20.155555555555555)"/><path d="M1120 168a8 8 0 0 1 8-8h204a8 8 0 0 1 8 8v164a8 8 0 0 1-8 8h-204a8 8 0 0 1-8-8z" fill="#fff"/><path d="M1120 235v36h220v-36M1120 305v27a8 8 0 0 0 8 8h204a8 8 0 0 0 8-8v-27" fill="#e6e6e6"/><path d="M1120 200v-32a8 8 0 0 1 8-8h204a8 8 0 0 1 8 8v32" fill="#1071e5"/><path d="M1120 168a8 8 0 0 1 8-8h204a8 8 0 0 1 8 8v164a8 8 0 0 1-8 8h-204a8 8 0 0 1-8-8zM1120 200h220M1161.33 200v140M1280 200v140" stroke="#3a414a" fill="none"/><use xlink:href="#H" transform="matrix(1,0,0,1,1130,160) translate(61.55555555555556 25.15555555555556)"/><use xlink:href="#b" transform="matrix(1,0,0,1,1125,202.5) translate(4.148148148148147 20.155555555555555)"/><use xlink:href="#I" transform="matrix(1,0,0,1,1166.333333333333,202.5) translate(6.179012345678995 20.155555555555555)"/><use xlink:href="#d" transform="matrix(1,0,0,1,1285,202.5) translate(15.641975308641973 20.155555555555555)"/><use xlink:href="#x" transform="matrix(1,0,0,1,1125,237.5) translate(4.666666666666666 20.155555555555555)"/><use xlink:href="#w" transform="matrix(1,0,0,1,1166.333333333333,237.5) translate(25.88271604938271 20.155555555555555)"/><use xlink:href="#d" transform="matrix(1,0,0,1,1285,237.5) translate(15.641975308641973 20.155555555555555)"/><use xlink:href="#x" transform="matrix(1,0,0,1,1125,272.5) translate(4.666666666666666 20.155555555555555)"/><use xlink:href="#c" transform="matrix(1,0,0,1,1166.333333333333,272.5) translate(25.41358024691358 20.155555555555555)"/><use xlink:href="#d" transform="matrix(1,0,0,1,1285,272.5) translate(15.641975308641973 20.155555555555555)"/><use xlink:href="#z" transform="matrix(1,0,0,1,1166.333333333333,307.5) translate(25.364197530864192 20.155555555555555)"/><use xlink:href="#f" transform="matrix(1,0,0,1,1285,307.5) translate(3.3209876543209838 20.155555555555555)"/><path d="M546 678.7h-2V641.2h2zm0-72h-2V578h2z" stroke="#3a414a" stroke-width=".05" fill="#3a414a"/><path fill="#fff"/><path d="M555 569h-20v-2h20z" stroke="#3a414a" stroke-width=".05" fill="#3a414a"/><path fill="#fff"/><path d="M546 578h-2v-20h2z" stroke="#3a414a" stroke-width=".05" fill="#3a414a"/><path fill="#fff"/><path d="M555 579h-20v-2h20z" stroke="#3a414a" stroke-width=".05" fill="#3a414a"/><path d="M535 717.25l10-20 10 20" fill="#fff" fill-opacity="0"/><path d="M555.9 716.8l-1.8.9-9.1-18.22-9.1 18.2-1.8-.88L545 695z" stroke="#3a414a" stroke-width=".05" fill="#3a414a"/><path fill="#fff"/><path d="M546 717.25h-2v-20h2z" stroke="#3a414a" stroke-width=".05" fill="#3a414a"/><path d="M555 687.25l-.5 3.15-1.43 2.75-2.16 2.17-2.74 1.4-3.16.52-3.16-.5-2.75-1.42-2.17-2.17-1.42-2.75-.5-3.15.5-3.17 1.43-2.74 2.16-2.17 2.74-1.42 3.16-.5 3.16.5 2.75 1.42 2.17 2.17 1.42 2.74.5 3.16" fill="#fff"/><path d="M548.48 676.8l3.02 1.56 2.4 2.38 1.55 3.03.54 3.32-1 .14 1 .16-.55 3.32-1.56 3.03-2.4 2.38-3.02 1.57-3.48.56-3.48-.56-3.02-1.57-2.4-2.38-1.55-3.03-.56-3.48.55-3.47 1.56-3.03 2.4-2.38 3.02-1.57 3.48-.57zm-6.32 1.92L539.7 680l-1.95 1.94-1.28 2.46-.46 2.85.47 2.84 1.28 2.45 1.94 1.95 2.46 1.27 2.84.46 2.84-.46 2.47-1.27 1.95-1.95 1.28-2.46.46-2.86-.47-2.84-1.28-2.46-1.94-1.95-2.46-1.28-2.84-.46z" stroke="#3a414a" stroke-width=".05" fill="#3a414a"/><path d="M499.94 623.96a16.27 16.27 0 0 1 16.27-16.27h57.6a16.27 16.27 0 0 1 16.26 16.25 16.27 16.27 0 0 1-16.26 16.27h-57.6a16.27 16.27 0 0 1-16.26-16.26z" stroke="#3a414a" stroke-width="2" fill-opacity="0"/><use xlink:href="#J" transform="matrix(1,0,0,1,511.9382716049383,611.6882816617685) translate(0.004999999999999005 17.422222222222224)"/><path d="M546 462h-2v-50.98h2zm0-85.52h-2V344.5h2z" stroke="#3a414a" stroke-width=".05" fill="#3a414a"/><path fill="#fff"/><path d="M555 473h-20v-2h20z" stroke="#3a414a" stroke-width=".05" fill="#3a414a"/><path fill="#fff"/><path d="M546 482h-2v-20h2z" stroke="#3a414a" stroke-width=".05" fill="#3a414a"/><path fill="#fff"/><path d="M555 463h-20v-2h20z" stroke="#3a414a" stroke-width=".05" fill="#3a414a"/><path d="M555 305.95l-10 20-10-20" fill="#fff" fill-opacity="0"/><path d="M555.9 306.4L545 328.17l-10.9-21.8 1.8-.88 9.1 18.2 9.1-18.2z" stroke="#3a414a" stroke-width=".05" fill="#3a414a"/><path fill="#fff"/><path d="M546 325.95h-2v-20h2z" stroke="#3a414a" stroke-width=".05" fill="#3a414a"/><path d="M555 335.95l-.5 3.16-1.43 2.75-2.16 2.17-2.74 1.42-3.16.5-3.16-.5-2.75-1.42-2.17-2.17-1.42-2.74-.5-3.15.5-3.16 1.43-2.76 2.16-2.16 2.74-1.42 3.16-.5 3.16.5 2.75 1.42 2.17 2.16 1.42 2.75.5 3.15" fill="#fff"/><path d="M548.48 325.5l3.02 1.56 2.4 2.38 1.55 3.03.54 3.32-1 .15 1 .16-.55 3.32-1.56 3.03-2.4 2.38-3.02 1.57-3.48.56-3.48-.56-3.02-1.56-2.4-2.4-1.55-3-.56-3.5.55-3.47 1.56-3.03 2.4-2.38 3.02-1.56 3.48-.57zm-6.32 1.92l-2.47 1.27-1.95 1.94-1.28 2.46-.46 2.85.47 2.84 1.28 2.46 1.94 1.94 2.46 1.28 2.84.45 2.84-.45 2.47-1.28 1.95-1.94 1.28-2.47.46-2.85-.47-2.85-1.28-2.46-1.94-1.95-2.46-1.28-2.84-.46z" stroke="#3a414a" stroke-width=".05" fill="#3a414a"/><path d="M518.68 393.75a16.27 16.27 0 0 1 16.27-16.27h20.1a16.27 16.27 0 0 1 16.27 16.27 16.27 16.27 0 0 1-16.27 16.27h-20.1a16.27 16.27 0 0 1-16.27-16.27z" stroke="#3a414a" stroke-width="2" fill-opacity="0"/><use xlink:href="#K" transform="matrix(1,0,0,1,530.679012345679,381.48333333333335) translate(0.005000000000000782 17.422222222222224)"/><path d="M718.5 455.43l.14 1.76.4 1.67.66 1.6.9 1.46 1.12 1.32 1.32 1.12 1.47.9 1.6.66 1.68.4 1.76.14h39.96v2h-40.04l-2-.16-1.98-.46-1.88-.78-1.74-1.07-1.56-1.33-1.32-1.56-1.07-1.73-.77-1.88-.47-2-.16-2V351.94h2zm-10.97-203.77l2 .47 1.87.78 1.74 1.08 1.56 1.33 1.32 1.56 1.07 1.74.77 1.88.47 2 .16 1.98v52.93h-2v-52.86l-.14-1.76-.4-1.68-.66-1.6-.9-1.46-1.12-1.32-1.32-1.12-1.47-.9-1.6-.66-1.68-.4-1.76-.14H684.5v-2h21.04z" stroke="#3a414a" stroke-width=".05" fill="#3a414a"/><path fill="#fff"/><path d="M780.5 477.47h-2v-20h2z" stroke="#3a414a" stroke-width=".05" fill="#3a414a"/><path fill="#fff"/><path d="M789.5 468.47h-20v-2h20z" stroke="#3a414a" stroke-width=".05" fill="#3a414a"/><path fill="#fff"/><path d="M770.5 477.47h-2v-20h2z" stroke="#3a414a" stroke-width=".05" fill="#3a414a"/><path d="M645.95 242.5l20 10-20 10" fill="#fff" fill-opacity="0"/><path d="M668.18 252.5l-21.8 10.9-.88-1.8 18.2-9.1-18.2-9.1.9-1.8z" stroke="#3a414a" stroke-width=".05" fill="#3a414a"/><path fill="#fff"/><path d="M665.95 253.5h-20v-2h20z" stroke="#3a414a" stroke-width=".05" fill="#3a414a"/><path d="M685.95 252.5l-.5 3.16-1.43 2.75-2.17 2.17-2.74 1.42-3.15.5-3.16-.5-2.76-1.43-2.16-2.16-1.42-2.74-.5-3.16.5-3.16 1.42-2.75 2.16-2.17 2.75-1.42 3.15-.5 3.16.5 2.75 1.43 2.17 2.16 1.42 2.74.5 3.16" fill="#fff"/><path d="M679.42 242.05l3.03 1.56 2.38 2.4 1.57 3.02.53 3.32-.98.16.98.16-.53 3.32-1.56 3.02-2.4 2.4-3.02 1.55-3.47.56-3.48-.55-3.03-1.56-2.38-2.4-1.56-3.02-.57-3.48.57-3.48 1.56-3.02 2.38-2.4 3.03-1.55 3.48-.56zm-6.32 1.92l-2.46 1.28-1.95 1.94-1.28 2.46-.46 2.84.46 2.84 1.27 2.47 1.94 1.95 2.46 1.28 2.85.46 2.84-.47 2.46-1.28 1.94-1.94 1.28-2.46.45-2.84-.45-2.84-1.28-2.47-1.94-1.95-2.47-1.28-2.85-.46z" stroke="#3a414a" stroke-width=".05" fill="#3a414a"/><path d="M699.1 334.66a16.27 16.27 0 0 1 16.27-16.27h4.26a16.27 16.27 0 0 1 16.26 16.26 16.27 16.27 0 0 1-16.27 16.27h-4.26a16.27 16.27 0 0 1-16.26-16.27z" stroke="#3a414a" stroke-width="2" fill-opacity="0"/><use xlink:href="#L" transform="matrix(1,0,0,1,711.1049192413067,322.3928687798731) translate(0.004999999999999005 17.422222222222224)"/><path d="M1041 799.96l.14 1.76.4 1.68.66 1.6.9 1.46 1.12 1.32 1.32 1.12 1.47.9 1.6.66 1.68.4 1.76.14h48.46v2h-48.54l-2-.16-1.98-.47-1.88-.78-1.74-1.08-1.55-1.32-1.32-1.56-1.07-1.74-.77-1.88-.47-2-.16-1.98v-74.26h2zm-10.97-225.77l2 .46 1.87.8 1.74 1.05 1.55 1.34 1.32 1.55 1.07 1.73.77 1.88.47 2 .16 2v104.25h-2V587.07l-.14-1.76-.4-1.67-.66-1.6-.9-1.46-1.12-1.32-1.32-1.12-1.47-.9-1.6-.66-1.68-.4-1.76-.14H990.5v-2h37.54z" stroke="#3a414a" stroke-width=".05" fill="#3a414a"/><path fill="#fff"/><path d="M981.5 585.03h-2v-20h2z" stroke="#3a414a" stroke-width=".05" fill="#3a414a"/><path fill="#fff"/><path d="M990.5 576.03h-20v-2h20z" stroke="#3a414a" stroke-width=".05" fill="#3a414a"/><path fill="#fff"/><path d="M991.5 585.03h-2v-20h2z" stroke="#3a414a" stroke-width=".05" fill="#3a414a"/><path d="M1139.05 822l-20-10 20-10" fill="#fff" fill-opacity="0"/><path d="M1139.5 802.9l-18.2 9.1 18.2 9.1-.9 1.8-21.78-10.9 21.8-10.9z" stroke="#3a414a" stroke-width=".05" fill="#3a414a"/><path fill="#fff"/><path d="M1139.05 813h-20v-2h20z" stroke="#3a414a" stroke-width=".05" fill="#3a414a"/><path d="M1119.05 812l-.5 3.16-1.43 2.75-2.16 2.17-2.75 1.42-3.15.5-3.16-.5-2.75-1.43-2.17-2.16-1.42-2.74-.5-3.16.5-3.16 1.42-2.75 2.17-2.17 2.74-1.42 3.15-.5 3.16.5 2.76 1.43 2.16 2.16 1.42 2.74.5 3.16" fill="#fff"/><path d="M1112.53 801.55l3.03 1.56 2.38 2.4 1.57 3.02.54 3.32-1 .16 1 .16-.53 3.32-1.56 3.02-2.38 2.4-3.03 1.55-3.48.56-3.47-.55-3.03-1.56-2.38-2.4-1.57-3.02-.56-3.48.56-3.48 1.57-3.02 2.38-2.4 3.03-1.55 3.47-.56zm-6.32 1.92l-2.46 1.28-1.94 1.94-1.28 2.46-.45 2.84.45 2.84 1.28 2.47 1.94 1.95 2.47 1.28 2.85.46 2.85-.47 2.46-1.28 1.95-1.94 1.28-2.46.46-2.84-.46-2.84-1.27-2.47-1.94-1.95-2.46-1.28-2.85-.46z" stroke="#3a414a" stroke-width=".05" fill="#3a414a"/><path d="M1013.68 708.5a16.27 16.27 0 0 1 16.27-16.25h20.1a16.27 16.27 0 0 1 16.27 16.26 16.27 16.27 0 0 1-16.27 16.28h-20.1a16.27 16.27 0 0 1-16.27-16.26z" stroke="#3a414a" stroke-width="2" fill-opacity="0"/><use xlink:href="#K" transform="matrix(1,0,0,1,1025.679012345679,696.2485530073579) translate(0.005000000000000782 17.422222222222224)"/><path d="M1231 715.2h-2V555.1h2zm0-194.62h-2V379.5h2z" stroke="#3a414a" stroke-width=".05" fill="#3a414a"/><path fill="#fff"/><path d="M1240 726.2h-20v-2h20z" stroke="#3a414a" stroke-width=".05" fill="#3a414a"/><path fill="#fff"/><path d="M1231 735.2h-2v-20h2z" stroke="#3a414a" stroke-width=".05" fill="#3a414a"/><path fill="#fff"/><path d="M1240 716.2h-20v-2h20z" stroke="#3a414a" stroke-width=".05" fill="#3a414a"/><path d="M1240 340.95l-10 20-10-20" fill="#fff" fill-opacity="0"/><path d="M1240.9 341.4l-10.9 21.78-10.9-21.8 1.8-.88 9.1 18.2 9.1-18.2z" stroke="#3a414a" stroke-width=".05" fill="#3a414a"/><path fill="#fff"/><path d="M1231 360.95h-2v-20h2z" stroke="#3a414a" stroke-width=".05" fill="#3a414a"/><path d="M1240 370.95l-.5 3.16-1.43 2.75-2.16 2.17-2.74 1.42-3.16.5-3.16-.5-2.75-1.42-2.17-2.17-1.42-2.74-.5-3.15.5-3.16 1.43-2.76 2.16-2.16 2.74-1.42 3.16-.5 3.16.5 2.75 1.42 2.17 2.16 1.42 2.75.5 3.15" fill="#fff"/><path d="M1233.48 360.5l3.02 1.56 2.4 2.38 1.55 3.03.54 3.32-1 .15 1 .16-.55 3.32-1.56 3.03-2.4 2.38-3.02 1.57-3.48.56-3.48-.56-3.02-1.56-2.4-2.4-1.55-3-.56-3.5.55-3.47 1.56-3.03 2.4-2.38 3.02-1.56 3.48-.57zm-6.32 1.92l-2.47 1.27-1.95 1.94-1.28 2.46-.46 2.85.47 2.84 1.28 2.46 1.94 1.94 2.46 1.28 2.84.45 2.84-.45 2.47-1.28 1.95-1.94 1.28-2.47.46-2.85-.47-2.85-1.28-2.46-1.94-1.95-2.46-1.28-2.84-.46z" stroke="#3a414a" stroke-width=".05" fill="#3a414a"/><path d="M1203.68 537.85a16.27 16.27 0 0 1 16.27-16.27h20.1a16.27 16.27 0 0 1 16.27 16.27 16.27 16.27 0 0 1-16.27 16.26h-20.1a16.27 16.27 0 0 1-16.27-16.25z" stroke="#3a414a" stroke-width="2" fill-opacity="0"/><use xlink:href="#K" transform="matrix(1,0,0,1,1215.679012345679,525.5792401451502) translate(0.005000000000000782 17.422222222222224)"/><path d="M1041 455.5l-.16 2-.47 2-.78 1.87-1.08 1.74-1.33 1.57-1.56 1.32-1.74 1.06-1.88.78-2 .47-1.98.17H990.5v-2h37.46l1.76-.14 1.68-.4 1.6-.66 1.46-.9 1.32-1.12 1.12-1.3.9-1.5.66-1.58.4-1.68.14-1.77V337.27h2zm39.5-202h-28.46l-1.76.14-1.68.4-1.6.66-1.46.9-1.32 1.12-1.12 1.3-.9 1.5-.66 1.58-.4 1.68-.14 1.76v38.2h-2v-38.28l.16-2 .47-1.98.78-1.88 1.08-1.74 1.33-1.56 1.56-1.32 1.74-1.07 1.88-.77 2-.47 1.98-.16h28.54z" stroke="#3a414a" stroke-width=".05" fill="#3a414a"/><path fill="#fff"/><path d="M981.5 477.47h-2v-20h2z" stroke="#3a414a" stroke-width=".05" fill="#3a414a"/><path fill="#fff"/><path d="M990.5 468.47h-20v-2h20z" stroke="#3a414a" stroke-width=".05" fill="#3a414a"/><path fill="#fff"/><path d="M991.5 477.47h-2v-20h2z" stroke="#3a414a" stroke-width=".05" fill="#3a414a"/><path d="M1119.05 262.5l-20-10 20-10" fill="#fff" fill-opacity="0"/><path d="M1119.5 243.4l-18.2 9.1 18.2 9.1-.9 1.8-21.78-10.9 21.8-10.9z" stroke="#3a414a" stroke-width=".05" fill="#3a414a"/><path fill="#fff"/><path d="M1119.05 253.5h-20v-2h20z" stroke="#3a414a" stroke-width=".05" fill="#3a414a"/><path d="M1099.05 252.5l-.5 3.16-1.43 2.74-2.16 2.17-2.75 1.42-3.15.5-3.16-.5-2.75-1.43-2.17-2.17-1.42-2.74-.5-3.16.5-3.16 1.42-2.75 2.17-2.17 2.74-1.42 3.15-.5 3.16.5 2.76 1.43 2.16 2.16 1.42 2.74.5 3.16" fill="#fff"/><path d="M1092.53 242.05l3.03 1.56 2.38 2.4 1.57 3.02.54 3.32-1 .16 1 .16-.53 3.32-1.56 3.02-2.38 2.4-3.03 1.55-3.48.56-3.47-.55-3.03-1.56-2.38-2.4-1.57-3.02-.56-3.48.56-3.48 1.57-3.02 2.38-2.4 3.03-1.55 3.47-.56zm-6.32 1.92l-2.46 1.28-1.94 1.94-1.28 2.46-.45 2.84.45 2.84 1.28 2.47 1.94 1.95 2.47 1.28 2.85.46 2.85-.47 2.46-1.28 1.95-1.94 1.28-2.46.46-2.84-.46-2.84-1.27-2.47-1.94-1.95-2.46-1.28-2.85-.46z" stroke="#3a414a" stroke-width=".05" fill="#3a414a"/><path d="M1001.85 320a16.27 16.27 0 0 1 16.27-16.27h43.76a16.27 16.27 0 0 1 16.27 16.27 16.27 16.27 0 0 1-16.27 16.27h-43.76a16.27 16.27 0 0 1-16.27-16.27z" stroke="#3a414a" stroke-width="2" fill-opacity="0"/><g><use xlink:href="#M" transform="matrix(1,0,0,1,1013.8518518518518,307.73333333333323) translate(0.004999999999999005 17.422222222222224)"/></g><defs><path fill="#fff" d="M232-93c-1 65-40 97-104 97C67 4 28-28 28-90v-158h33c8 89-33 224 67 224 102 0 64-133 71-224h33v155" id="N"/><path fill="#fff" d="M135-143c-3-34-86-38-87 0 15 53 115 12 119 90S17 21 10-45l28-5c4 36 97 45 98 0-10-56-113-15-118-90-4-57 82-63 122-42 12 7 21 19 24 35" id="O"/><path fill="#fff" d="M100-194c63 0 86 42 84 106H49c0 40 14 67 53 68 26 1 43-12 49-29l28 8c-11 28-37 45-77 45C44 4 14-33 15-96c1-61 26-98 85-98zm52 81c6-60-76-77-97-28-3 7-6 17-6 28h103" id="P"/><path fill="#fff" d="M114-163C36-179 61-72 57 0H25l-1-190h30c1 12-1 29 2 39 6-27 23-49 58-41v29" id="Q"/><g id="a"><use transform="matrix(0.04938271604938272,0,0,0.04938271604938272,0,0)" xlink:href="#N"/><use transform="matrix(0.04938271604938272,0,0,0.04938271604938272,12.790123456790125,0)" xlink:href="#O"/><use transform="matrix(0.04938271604938272,0,0,0.04938271604938272,21.679012345679013,0)" xlink:href="#P"/><use transform="matrix(0.04938271604938272,0,0,0.04938271604938272,31.555555555555557,0)" xlink:href="#Q"/></g><path fill="#3a414a" d="M30-248c87 1 191-15 191 75 0 78-77 80-158 76V0H30v-248zm33 125c57 0 124 11 124-50 0-59-68-47-124-48v98" id="R"/><path fill="#3a414a" d="M194 0L95-120 63-95V0H30v-248h33v124l119-124h40L117-140 236 0h-42" id="S"/><g id="b"><use transform="matrix(0.04938271604938272,0,0,0.04938271604938272,0,0)" xlink:href="#R"/><use transform="matrix(0.04938271604938272,0,0,0.04938271604938272,11.851851851851853,0)" xlink:href="#S"/></g><path fill="#3a414a" d="M84 4C-5 8 30-112 23-190h32v120c0 31 7 50 39 49 72-2 45-101 50-169h31l1 190h-30c-1-10 1-25-2-33-11 22-28 36-60 37" id="T"/><path fill="#3a414a" d="M135-143c-3-34-86-38-87 0 15 53 115 12 119 90S17 21 10-45l28-5c4 36 97 45 98 0-10-56-113-15-118-90-4-57 82-63 122-42 12 7 21 19 24 35" id="U"/><path fill="#3a414a" d="M100-194c63 0 86 42 84 106H49c0 40 14 67 53 68 26 1 43-12 49-29l28 8c-11 28-37 45-77 45C44 4 14-33 15-96c1-61 26-98 85-98zm52 81c6-60-76-77-97-28-3 7-6 17-6 28h103" id="V"/><path fill="#3a414a" d="M114-163C36-179 61-72 57 0H25l-1-190h30c1 12-1 29 2 39 6-27 23-49 58-41v29" id="W"/><path fill="#3a414a" d="M-5 72V49h209v23H-5" id="X"/><path fill="#3a414a" d="M24-231v-30h32v30H24zM24 0v-190h32V0H24" id="Y"/><path fill="#3a414a" d="M85-194c31 0 48 13 60 33l-1-100h32l1 261h-30c-2-10 0-23-3-31C134-8 116 4 85 4 32 4 16-35 15-94c0-66 23-100 70-100zm9 24c-40 0-46 34-46 75 0 40 6 74 45 74 42 0 51-32 51-76 0-42-9-74-50-73" id="Z"/><g id="c"><use transform="matrix(0.04938271604938272,0,0,0.04938271604938272,0,0)" xlink:href="#T"/><use transform="matrix(0.04938271604938272,0,0,0.04938271604938272,9.876543209876544,0)" xlink:href="#U"/><use transform="matrix(0.04938271604938272,0,0,0.04938271604938272,18.765432098765434,0)" xlink:href="#V"/><use transform="matrix(0.04938271604938272,0,0,0.04938271604938272,28.641975308641978,0)" xlink:href="#W"/><use transform="matrix(0.04938271604938272,0,0,0.04938271604938272,34.51851851851852,0)" xlink:href="#X"/><use transform="matrix(0.04938271604938272,0,0,0.04938271604938272,44.39506172839506,0)" xlink:href="#Y"/><use transform="matrix(0.04938271604938272,0,0,0.04938271604938272,48.2962962962963,0)" xlink:href="#Z"/></g><path fill="#3a414a" d="M117-194c89-4 53 116 60 194h-32v-121c0-31-8-49-39-48C34-167 62-67 57 0H25l-1-190h30c1 10-1 24 2 32 11-22 29-35 61-36" id="aa"/><path fill="#3a414a" d="M59-47c-2 24 18 29 38 22v24C64 9 27 4 27-40v-127H5v-23h24l9-43h21v43h35v23H59v120" id="ab"/><g id="d"><use transform="matrix(0.04938271604938272,0,0,0.04938271604938272,0,0)" xlink:href="#Y"/><use transform="matrix(0.04938271604938272,0,0,0.04938271604938272,3.901234567901235,0)" xlink:href="#aa"/><use transform="matrix(0.04938271604938272,0,0,0.04938271604938272,13.777777777777779,0)" xlink:href="#ab"/></g><path fill="#3a414a" d="M141-36C126-15 110 5 73 4 37 3 15-17 15-53c-1-64 63-63 125-63 3-35-9-54-41-54-24 1-41 7-42 31l-33-3c5-37 33-52 76-52 45 0 72 20 72 64v82c-1 20 7 32 28 27v20c-31 9-61-2-59-35zM48-53c0 20 12 33 32 33 41-3 63-29 60-74-43 2-92-5-92 41" id="ac"/><path fill="#3a414a" d="M210-169c-67 3-38 105-44 169h-31v-121c0-29-5-50-35-48C34-165 62-65 56 0H25l-1-190h30c1 10-1 24 2 32 10-44 99-50 107 0 11-21 27-35 58-36 85-2 47 119 55 194h-31v-121c0-29-5-49-35-48" id="ad"/><g id="e"><use transform="matrix(0.04938271604938272,0,0,0.04938271604938272,0,0)" xlink:href="#aa"/><use transform="matrix(0.04938271604938272,0,0,0.04938271604938272,9.876543209876544,0)" xlink:href="#ac"/><use transform="matrix(0.04938271604938272,0,0,0.04938271604938272,19.75308641975309,0)" xlink:href="#ad"/><use transform="matrix(0.04938271604938272,0,0,0.04938271604938272,34.51851851851852,0)" xlink:href="#V"/></g><path fill="#3a414a" d="M177-190C167-65 218 103 67 71c-23-6-38-20-44-43l32-5c15 47 100 32 89-28v-30C133-14 115 1 83 1 29 1 15-40 15-95c0-56 16-97 71-98 29-1 48 16 59 35 1-10 0-23 2-32h30zM94-22c36 0 50-32 50-73 0-42-14-75-50-75-39 0-46 34-46 75s6 73 46 73" id="ae"/><g id="f"><use transform="matrix(0.04938271604938272,0,0,0.04938271604938272,0,0)" xlink:href="#U"/><use transform="matrix(0.04938271604938272,0,0,0.04938271604938272,8.88888888888889,0)" xlink:href="#ab"/><use transform="matrix(0.04938271604938272,0,0,0.04938271604938272,13.827160493827162,0)" xlink:href="#W"/><use transform="matrix(0.04938271604938272,0,0,0.04938271604938272,19.703703703703706,0)" xlink:href="#Y"/><use transform="matrix(0.04938271604938272,0,0,0.04938271604938272,23.60493827160494,0)" xlink:href="#aa"/><use transform="matrix(0.04938271604938272,0,0,0.04938271604938272,33.48148148148148,0)" xlink:href="#ae"/></g><path fill="#3a414a" d="M24 0v-261h32V0H24" id="af"/><g id="g"><use transform="matrix(0.04938271604938272,0,0,0.04938271604938272,0,0)" xlink:href="#V"/><use transform="matrix(0.04938271604938272,0,0,0.04938271604938272,9.876543209876544,0)" xlink:href="#ad"/><use transform="matrix(0.04938271604938272,0,0,0.04938271604938272,24.641975308641978,0)" xlink:href="#ac"/><use transform="matrix(0.04938271604938272,0,0,0.04938271604938272,34.51851851851852,0)" xlink:href="#Y"/><use transform="matrix(0.04938271604938272,0,0,0.04938271604938272,38.41975308641975,0)" xlink:href="#af"/></g><path fill="#a9afb8" d="M230 0l2-204L168 0h-37L68-204 70 0H24v-248h70l56 185 57-185h69V0h-46" id="ag"/><path fill="#a9afb8" d="M110-194c64 0 96 36 96 99 0 64-35 99-97 99-61 0-95-36-95-99 0-62 34-99 96-99zm-1 164c35 0 45-28 45-65 0-40-10-65-43-65-34 0-45 26-45 65 0 36 10 65 43 65" id="ah"/><path fill="#a9afb8" d="M190-63c-7 42-38 67-86 67-59 0-84-38-90-98-12-110 154-137 174-36l-49 2c-2-19-15-32-35-32-30 0-35 28-38 64-6 74 65 87 74 30" id="ai"/><path fill="#a9afb8" d="M147 0L96-86 75-71V0H25v-261h50v150l67-79h53l-66 74L201 0h-54" id="aj"/><g id="h"><use transform="matrix(0.0728395061728395,0,0,0.0728395061728395,0,0)" xlink:href="#ag"/><use transform="matrix(0.0728395061728395,0,0,0.0728395061728395,21.77901234567901,0)" xlink:href="#ah"/><use transform="matrix(0.0728395061728395,0,0,0.0728395061728395,37.73086419753086,0)" xlink:href="#ai"/><use transform="matrix(0.0728395061728395,0,0,0.0728395061728395,52.29876543209876,0)" xlink:href="#aj"/></g><path fill="#a9afb8" d="M169-182c-1-43-94-46-97-3 18 66 151 10 154 114 3 95-165 93-204 36-6-8-10-19-12-30l50-8c3 46 112 56 116 5-17-69-150-10-154-114-4-87 153-88 188-35 5 8 8 18 10 28" id="ak"/><path fill="#a9afb8" d="M25-224v-37h50v37H25zM25 0v-190h50V0H25" id="al"/><path fill="#a9afb8" d="M133-34C117-15 103 5 69 4 32 3 11-16 11-54c-1-60 55-63 116-61 1-26-3-47-28-47-18 1-26 9-28 27l-52-2c7-38 36-58 82-57s74 22 75 68l1 82c-1 14 12 18 25 15v27c-30 8-71 5-69-32zm-48 3c29 0 43-24 42-57-32 0-66-3-65 30 0 17 8 27 23 27" id="am"/><path fill="#a9afb8" d="M25 0v-261h50V0H25" id="an"/><g id="i"><use transform="matrix(0.0728395061728395,0,0,0.0728395061728395,0,0)" xlink:href="#ak"/><use transform="matrix(0.0728395061728395,0,0,0.0728395061728395,17.48148148148148,0)" xlink:href="#ah"/><use transform="matrix(0.0728395061728395,0,0,0.0728395061728395,33.43333333333333,0)" xlink:href="#ai"/><use transform="matrix(0.0728395061728395,0,0,0.0728395061728395,48.00123456790123,0)" xlink:href="#al"/><use transform="matrix(0.0728395061728395,0,0,0.0728395061728395,55.28518518518518,0)" xlink:href="#am"/><use transform="matrix(0.0728395061728395,0,0,0.0728395061728395,69.85308641975308,0)" xlink:href="#an"/></g><path fill="#a9afb8" d="M175 0L67-191c6 58 2 128 3 191H24v-248h59L193-55c-6-58-2-129-3-193h46V0h-61" id="ao"/><path fill="#a9afb8" d="M185-48c-13 30-37 53-82 52C43 2 14-33 14-96s30-98 90-98c62 0 83 45 84 108H66c0 31 8 55 39 56 18 0 30-7 34-22zm-45-69c5-46-57-63-70-21-2 6-4 13-4 21h74" id="ap"/><path fill="#a9afb8" d="M115-3C79 11 28 4 28-45v-112H4v-33h27l15-45h31v45h36v33H77v99c-1 23 16 31 38 25v30" id="aq"/><path fill="#a9afb8" d="M231 0h-52l-39-155L100 0H48L-1-190h46L77-45c9-52 24-97 36-145h53l37 145 32-145h46" id="ar"/><path fill="#a9afb8" d="M135-150c-39-12-60 13-60 57V0H25l-1-190h47c2 13-1 29 3 40 6-28 27-53 61-41v41" id="as"/><g id="j"><use transform="matrix(0.0728395061728395,0,0,0.0728395061728395,0,0)" xlink:href="#ao"/><use transform="matrix(0.0728395061728395,0,0,0.0728395061728395,18.86543209876543,0)" xlink:href="#ap"/><use transform="matrix(0.0728395061728395,0,0,0.0728395061728395,33.43333333333333,0)" xlink:href="#aq"/><use transform="matrix(0.0728395061728395,0,0,0.0728395061728395,42.10123456790124,0)" xlink:href="#ar"/><use transform="matrix(0.0728395061728395,0,0,0.0728395061728395,62.49629629629629,0)" xlink:href="#ah"/><use transform="matrix(0.0728395061728395,0,0,0.0728395061728395,78.44814814814815,0)" xlink:href="#as"/><use transform="matrix(0.0728395061728395,0,0,0.0728395061728395,88.64567901234568,0)" xlink:href="#aj"/></g><path fill="#a9afb8" d="M24 0v-248h195v40H76v63h132v40H76v65h150V0H24" id="at"/><path fill="#a9afb8" d="M240-174c0 40-23 61-54 70L253 0h-59l-57-94H76V0H24v-248c93 4 217-23 216 74zM76-134c48-2 112 12 112-38 0-48-66-32-112-35v73" id="au"/><path fill="#a9afb8" d="M24-248c120-7 223 5 221 122C244-46 201 0 124 0H24v-248zM76-40c74 7 117-18 117-86 0-67-45-88-117-82v168" id="av"/><g id="k"><use transform="matrix(0.0728395061728395,0,0,0.0728395061728395,0,0)" xlink:href="#at"/><use transform="matrix(0.0728395061728395,0,0,0.0728395061728395,17.48148148148148,0)" xlink:href="#au"/><use transform="matrix(0.0728395061728395,0,0,0.0728395061728395,36.34691358024691,0)" xlink:href="#av"/></g><path fill="#a9afb8" d="M33 0v-248h34V0H33" id="aw"/><path fill="#a9afb8" d="M177-190C167-65 218 103 67 71c-23-6-38-20-44-43l32-5c15 47 100 32 89-28v-30C133-14 115 1 83 1 29 1 15-40 15-95c0-56 16-97 71-98 29-1 48 16 59 35 1-10 0-23 2-32h30zM94-22c36 0 50-32 50-73 0-42-14-75-50-75-39 0-46 34-46 75s6 73 46 73" id="ax"/><path fill="#a9afb8" d="M117-194c89-4 53 116 60 194h-32v-121c0-31-8-49-39-48C34-167 62-67 57 0H25l-1-190h30c1 10-1 24 2 32 11-22 29-35 61-36" id="ay"/><path fill="#a9afb8" d="M141-36C126-15 110 5 73 4 37 3 15-17 15-53c-1-64 63-63 125-63 3-35-9-54-41-54-24 1-41 7-42 31l-33-3c5-37 33-52 76-52 45 0 72 20 72 64v82c-1 20 7 32 28 27v20c-31 9-61-2-59-35zM48-53c0 20 12 33 32 33 41-3 63-29 60-74-43 2-92-5-92 41" id="az"/><path fill="#a9afb8" d="M96-169c-40 0-48 33-48 73s9 75 48 75c24 0 41-14 43-38l32 2c-6 37-31 61-74 61-59 0-76-41-82-99-10-93 101-131 147-64 4 7 5 14 7 22l-32 3c-4-21-16-35-41-35" id="aA"/><path fill="#a9afb8" d="M24-231v-30h32v30H24zM24 0v-190h32V0H24" id="aB"/><path fill="#a9afb8" d="M100-194c62-1 85 37 85 99 1 63-27 99-86 99S16-35 15-95c0-66 28-99 85-99zM99-20c44 1 53-31 53-75 0-43-8-75-51-75s-53 32-53 75 10 74 51 75" id="aC"/><g id="l"><use transform="matrix(0.04248971193415638,0,0,0.04248971193415638,0,0)" xlink:href="#aw"/><use transform="matrix(0.04248971193415638,0,0,0.04248971193415638,4.248971193415637,0)" xlink:href="#ax"/><use transform="matrix(0.04248971193415638,0,0,0.04248971193415638,12.746913580246911,0)" xlink:href="#ay"/><use transform="matrix(0.04248971193415638,0,0,0.04248971193415638,21.244855967078188,0)" xlink:href="#az"/><use transform="matrix(0.04248971193415638,0,0,0.04248971193415638,29.742798353909464,0)" xlink:href="#aA"/><use transform="matrix(0.04248971193415638,0,0,0.04248971193415638,37.39094650205761,0)" xlink:href="#aB"/><use transform="matrix(0.04248971193415638,0,0,0.04248971193415638,40.74763374485596,0)" xlink:href="#aC"/></g><path fill="#a9afb8" d="M30 0v-248h33v221h125V0H30" id="aD"/><path fill="#a9afb8" d="M115-194c55 1 70 41 70 98S169 2 115 4C84 4 66-9 55-30l1 105H24l-1-265h31l2 30c10-21 28-34 59-34zm-8 174c40 0 45-34 45-75s-6-73-45-74c-42 0-51 32-51 76 0 43 10 73 51 73" id="aE"/><path fill="#a9afb8" d="M100-194c63 0 86 42 84 106H49c0 40 14 67 53 68 26 1 43-12 49-29l28 8c-11 28-37 45-77 45C44 4 14-33 15-96c1-61 26-98 85-98zm52 81c6-60-76-77-97-28-3 7-6 17-6 28h103" id="aF"/><path fill="#a9afb8" d="M9 0v-24l116-142H16v-24h144v24L44-24h123V0H9" id="aG"/><path fill="#a9afb8" d="M135-143c-3-34-86-38-87 0 15 53 115 12 119 90S17 21 10-45l28-5c4 36 97 45 98 0-10-56-113-15-118-90-4-57 82-63 122-42 12 7 21 19 24 35" id="aH"/><g id="m"><use transform="matrix(0.04248971193415638,0,0,0.04248971193415638,0,0)" xlink:href="#aD"/><use transform="matrix(0.04248971193415638,0,0,0.04248971193415638,8.497942386831275,0)" xlink:href="#aC"/><use transform="matrix(0.04248971193415638,0,0,0.04248971193415638,16.99588477366255,0)" xlink:href="#aE"/><use transform="matrix(0.04248971193415638,0,0,0.04248971193415638,25.493827160493822,0)" xlink:href="#aF"/><use transform="matrix(0.04248971193415638,0,0,0.04248971193415638,33.9917695473251,0)" xlink:href="#aG"/><use transform="matrix(0.04248971193415638,0,0,0.04248971193415638,41.639917695473244,0)" xlink:href="#aC"/><use transform="matrix(0.04248971193415638,0,0,0.04248971193415638,50.13786008230453,0)" xlink:href="#aH"/><use transform="matrix(0.04248971193415638,0,0,0.04248971193415638,57.786008230452666,0)" xlink:href="#az"/></g><path fill="#a9afb8" d="M185-189c-5-48-123-54-124 2 14 75 158 14 163 119 3 78-121 87-175 55-17-10-28-26-33-46l33-7c5 56 141 63 141-1 0-78-155-14-162-118-5-82 145-84 179-34 5 7 8 16 11 25" id="aI"/><path fill="#a9afb8" d="M114-163C36-179 61-72 57 0H25l-1-190h30c1 12-1 29 2 39 6-27 23-49 58-41v29" id="aJ"/><g id="n"><use transform="matrix(0.04248971193415638,0,0,0.04248971193415638,0,0)" xlink:href="#aI"/><use transform="matrix(0.04248971193415638,0,0,0.04248971193415638,10.19753086419753,0)" xlink:href="#aF"/><use transform="matrix(0.04248971193415638,0,0,0.04248971193415638,18.695473251028805,0)" xlink:href="#aJ"/><use transform="matrix(0.04248971193415638,0,0,0.04248971193415638,23.751748971193415,0)" xlink:href="#aJ"/><use transform="matrix(0.04248971193415638,0,0,0.04248971193415638,28.808024691358025,0)" xlink:href="#az"/><use transform="matrix(0.04248971193415638,0,0,0.04248971193415638,37.3059670781893,0)" xlink:href="#ay"/><use transform="matrix(0.04248971193415638,0,0,0.04248971193415638,45.803909465020574,0)" xlink:href="#aC"/></g><path fill="#a9afb8" d="M32 76v-337h29V76H32" id="aK"/><use transform="matrix(0.04248971193415638,0,0,0.04248971193415638,0,0)" xlink:href="#aK" id="o"/><path fill="#a9afb8" d="M153-248C145-148 188 4 80 4 36 3 13-21 6-62l32-5c4 25 16 42 43 43 27 0 39-20 39-49v-147H72v-28h81" id="aL"/><path fill="#a9afb8" d="M84 4C-5 8 30-112 23-190h32v120c0 31 7 50 39 49 72-2 45-101 50-169h31l1 190h-30c-1-10 1-25-2-33-11 22-28 36-60 37" id="aM"/><g id="p"><use transform="matrix(0.04248971193415638,0,0,0.04248971193415638,0,0)" xlink:href="#aL"/><use transform="matrix(0.04248971193415638,0,0,0.04248971193415638,7.648148148148148,0)" xlink:href="#aM"/><use transform="matrix(0.04248971193415638,0,0,0.04248971193415638,16.14609053497942,0)" xlink:href="#ay"/><use transform="matrix(0.04248971193415638,0,0,0.04248971193415638,24.644032921810698,0)" xlink:href="#aF"/></g><path fill="#a9afb8" d="M27 0v-27h64v-190l-56 39v-29l58-41h29v221h61V0H27" id="aN"/><path fill="#a9afb8" d="M99-251c64 0 84 50 84 122C183-37 130 33 47-8c-14-7-20-23-25-40l30-5c6 39 69 39 84 7 9-19 16-44 16-74-10 22-31 35-62 35-49 0-73-33-73-83 0-54 28-83 82-83zm-1 141c31-1 51-18 51-49 0-36-14-67-51-67-34 0-49 23-49 58 0 34 15 58 49 58" id="aO"/><path fill="#a9afb8" d="M68-38c1 34 0 65-14 84H32c9-13 17-26 17-46H33v-38h35" id="aP"/><g id="q"><use transform="matrix(0.04248971193415638,0,0,0.04248971193415638,0,0)" xlink:href="#aN"/><use transform="matrix(0.04248971193415638,0,0,0.04248971193415638,8.497942386831275,0)" xlink:href="#aO"/><use transform="matrix(0.04248971193415638,0,0,0.04248971193415638,16.99588477366255,0)" xlink:href="#aP"/></g><path fill="#a9afb8" d="M101-251c82-7 93 87 43 132L82-64C71-53 59-42 53-27h129V0H18c2-99 128-94 128-182 0-28-16-43-45-43s-46 15-49 41l-32-3c6-41 34-60 81-64" id="aQ"/><path fill="#a9afb8" d="M101-251c68 0 85 55 85 127S166 4 100 4C33 4 14-52 14-124c0-73 17-127 87-127zm-1 229c47 0 54-49 54-102s-4-102-53-102c-51 0-55 48-55 102 0 53 5 102 54 102" id="aR"/><path fill="#a9afb8" d="M126-127c33 6 58 20 58 59 0 88-139 92-164 29-3-8-5-16-6-25l32-3c6 27 21 44 54 44 32 0 52-15 52-46 0-38-36-46-79-43v-28c39 1 72-4 72-42 0-27-17-43-46-43-28 0-47 15-49 41l-32-3c6-42 35-63 81-64 48-1 79 21 79 65 0 36-21 52-52 59" id="aS"/><g id="r"><use transform="matrix(0.04248971193415638,0,0,0.04248971193415638,0,0)" xlink:href="#aQ"/><use transform="matrix(0.04248971193415638,0,0,0.04248971193415638,8.497942386831275,0)" xlink:href="#aR"/><use transform="matrix(0.04248971193415638,0,0,0.04248971193415638,16.99588477366255,0)" xlink:href="#aQ"/><use transform="matrix(0.04248971193415638,0,0,0.04248971193415638,25.493827160493822,0)" xlink:href="#aS"/></g><path fill="#fff" d="M212-179c-10-28-35-45-73-45-59 0-87 40-87 99 0 60 29 101 89 101 43 0 62-24 78-52l27 14C228-24 195 4 139 4 59 4 22-46 18-125c-6-104 99-153 187-111 19 9 31 26 39 46" id="aT"/><path fill="#fff" d="M106-169C34-169 62-67 57 0H25v-261h32l-1 103c12-21 28-36 61-36 89 0 53 116 60 194h-32v-121c2-32-8-49-39-48" id="aU"/><path fill="#fff" d="M141-36C126-15 110 5 73 4 37 3 15-17 15-53c-1-64 63-63 125-63 3-35-9-54-41-54-24 1-41 7-42 31l-33-3c5-37 33-52 76-52 45 0 72 20 72 64v82c-1 20 7 32 28 27v20c-31 9-61-2-59-35zM48-53c0 20 12 33 32 33 41-3 63-29 60-74-43 2-92-5-92 41" id="aV"/><path fill="#fff" d="M59-47c-2 24 18 29 38 22v24C64 9 27 4 27-40v-127H5v-23h24l9-43h21v43h35v23H59v120" id="aW"/><g id="s"><use transform="matrix(0.04938271604938272,0,0,0.04938271604938272,0,0)" xlink:href="#aT"/><use transform="matrix(0.04938271604938272,0,0,0.04938271604938272,12.790123456790125,0)" xlink:href="#aU"/><use transform="matrix(0.04938271604938272,0,0,0.04938271604938272,22.66666666666667,0)" xlink:href="#aV"/><use transform="matrix(0.04938271604938272,0,0,0.04938271604938272,32.543209876543216,0)" xlink:href="#aW"/></g><path fill="#3a414a" d="M96-169c-40 0-48 33-48 73s9 75 48 75c24 0 41-14 43-38l32 2c-6 37-31 61-74 61-59 0-76-41-82-99-10-93 101-131 147-64 4 7 5 14 7 22l-32 3c-4-21-16-35-41-35" id="aX"/><path fill="#3a414a" d="M106-169C34-169 62-67 57 0H25v-261h32l-1 103c12-21 28-36 61-36 89 0 53 116 60 194h-32v-121c2-32-8-49-39-48" id="aY"/><g id="t"><use transform="matrix(0.04938271604938272,0,0,0.04938271604938272,0,0)" xlink:href="#aX"/><use transform="matrix(0.04938271604938272,0,0,0.04938271604938272,8.88888888888889,0)" xlink:href="#aY"/><use transform="matrix(0.04938271604938272,0,0,0.04938271604938272,18.765432098765434,0)" xlink:href="#ac"/><use transform="matrix(0.04938271604938272,0,0,0.04938271604938272,28.641975308641978,0)" xlink:href="#ab"/><use transform="matrix(0.04938271604938272,0,0,0.04938271604938272,33.580246913580254,0)" xlink:href="#X"/><use transform="matrix(0.04938271604938272,0,0,0.04938271604938272,43.4567901234568,0)" xlink:href="#Y"/><use transform="matrix(0.04938271604938272,0,0,0.04938271604938272,47.35802469135803,0)" xlink:href="#Z"/></g><g id="u"><use transform="matrix(0.04938271604938272,0,0,0.04938271604938272,0,0)" xlink:href="#U"/><use transform="matrix(0.04938271604938272,0,0,0.04938271604938272,8.88888888888889,0)" xlink:href="#V"/><use transform="matrix(0.04938271604938272,0,0,0.04938271604938272,18.765432098765434,0)" xlink:href="#aa"/><use transform="matrix(0.04938271604938272,0,0,0.04938271604938272,28.641975308641978,0)" xlink:href="#Z"/><use transform="matrix(0.04938271604938272,0,0,0.04938271604938272,38.51851851851852,0)" xlink:href="#U"/></g><path fill="#fff" d="M30-248c87 1 191-15 191 75 0 78-77 80-158 76V0H30v-248zm33 125c57 0 124 11 124-50 0-59-68-47-124-48v98" id="aZ"/><path fill="#fff" d="M100-194c62-1 85 37 85 99 1 63-27 99-86 99S16-35 15-95c0-66 28-99 85-99zM99-20c44 1 53-31 53-75 0-43-8-75-51-75s-53 32-53 75 10 74 51 75" id="ba"/><g id="v"><use transform="matrix(0.04938271604938272,0,0,0.04938271604938272,0,0)" xlink:href="#aZ"/><use transform="matrix(0.04938271604938272,0,0,0.04938271604938272,11.851851851851853,0)" xlink:href="#ba"/><use transform="matrix(0.04938271604938272,0,0,0.04938271604938272,21.7283950617284,0)" xlink:href="#O"/><use transform="matrix(0.04938271604938272,0,0,0.04938271604938272,30.617283950617285,0)" xlink:href="#aW"/></g><path fill="#3a414a" d="M115-194c55 1 70 41 70 98S169 2 115 4C84 4 66-9 55-30l1 105H24l-1-265h31l2 30c10-21 28-34 59-34zm-8 174c40 0 45-34 45-75s-6-73-45-74c-42 0-51 32-51 76 0 43 10 73 51 73" id="bb"/><path fill="#3a414a" d="M100-194c62-1 85 37 85 99 1 63-27 99-86 99S16-35 15-95c0-66 28-99 85-99zM99-20c44 1 53-31 53-75 0-43-8-75-51-75s-53 32-53 75 10 74 51 75" id="bc"/><g id="w"><use transform="matrix(0.04938271604938272,0,0,0.04938271604938272,0,0)" xlink:href="#bb"/><use transform="matrix(0.04938271604938272,0,0,0.04938271604938272,9.876543209876544,0)" xlink:href="#bc"/><use transform="matrix(0.04938271604938272,0,0,0.04938271604938272,19.75308641975309,0)" xlink:href="#U"/><use transform="matrix(0.04938271604938272,0,0,0.04938271604938272,28.641975308641978,0)" xlink:href="#ab"/><use transform="matrix(0.04938271604938272,0,0,0.04938271604938272,33.580246913580254,0)" xlink:href="#X"/><use transform="matrix(0.04938271604938272,0,0,0.04938271604938272,43.4567901234568,0)" xlink:href="#Y"/><use transform="matrix(0.04938271604938272,0,0,0.04938271604938272,47.35802469135803,0)" xlink:href="#Z"/></g><path fill="#3a414a" d="M63-220v92h138v28H63V0H30v-248h175v28H63" id="bd"/><g id="x"><use transform="matrix(0.04938271604938272,0,0,0.04938271604938272,0,0)" xlink:href="#bd"/><use transform="matrix(0.04938271604938272,0,0,0.04938271604938272,10.814814814814815,0)" xlink:href="#S"/></g><g id="y"><use transform="matrix(0.04938271604938272,0,0,0.04938271604938272,0,0)" xlink:href="#ab"/><use transform="matrix(0.04938271604938272,0,0,0.04938271604938272,4.938271604938272,0)" xlink:href="#Y"/><use transform="matrix(0.04938271604938272,0,0,0.04938271604938272,8.839506172839506,0)" xlink:href="#ab"/><use transform="matrix(0.04938271604938272,0,0,0.04938271604938272,13.777777777777779,0)" xlink:href="#af"/><use transform="matrix(0.04938271604938272,0,0,0.04938271604938272,17.679012345679013,0)" xlink:href="#V"/></g><g id="z"><use transform="matrix(0.04938271604938272,0,0,0.04938271604938272,0,0)" xlink:href="#aX"/><use transform="matrix(0.04938271604938272,0,0,0.04938271604938272,8.88888888888889,0)" xlink:href="#bc"/><use transform="matrix(0.04938271604938272,0,0,0.04938271604938272,18.765432098765434,0)" xlink:href="#aa"/><use transform="matrix(0.04938271604938272,0,0,0.04938271604938272,28.641975308641978,0)" xlink:href="#ab"/><use transform="matrix(0.04938271604938272,0,0,0.04938271604938272,33.580246913580254,0)" xlink:href="#V"/><use transform="matrix(0.04938271604938272,0,0,0.04938271604938272,43.4567901234568,0)" xlink:href="#aa"/><use transform="matrix(0.04938271604938272,0,0,0.04938271604938272,53.333333333333336,0)" xlink:href="#ab"/></g><path fill="#fff" d="M24-231v-30h32v30H24zM24 0v-190h32V0H24" id="be"/><path fill="#fff" d="M96-169c-40 0-48 33-48 73s9 75 48 75c24 0 41-14 43-38l32 2c-6 37-31 61-74 61-59 0-76-41-82-99-10-93 101-131 147-64 4 7 5 14 7 22l-32 3c-4-21-16-35-41-35" id="bf"/><path fill="#fff" d="M115-194c55 1 70 41 70 98S169 2 115 4C84 4 66-9 55-30l1 105H24l-1-265h31l2 30c10-21 28-34 59-34zm-8 174c40 0 45-34 45-75s-6-73-45-74c-42 0-51 32-51 76 0 43 10 73 51 73" id="bg"/><path fill="#fff" d="M117-194c89-4 53 116 60 194h-32v-121c0-31-8-49-39-48C34-167 62-67 57 0H25l-1-190h30c1 10-1 24 2 32 11-22 29-35 61-36" id="bh"/><g id="A"><use transform="matrix(0.04938271604938272,0,0,0.04938271604938272,0,0)" xlink:href="#aZ"/><use transform="matrix(0.04938271604938272,0,0,0.04938271604938272,11.851851851851853,0)" xlink:href="#aV"/><use transform="matrix(0.04938271604938272,0,0,0.04938271604938272,21.7283950617284,0)" xlink:href="#Q"/><use transform="matrix(0.04938271604938272,0,0,0.04938271604938272,27.604938271604947,0)" xlink:href="#aW"/><use transform="matrix(0.04938271604938272,0,0,0.04938271604938272,32.543209876543216,0)" xlink:href="#be"/><use transform="matrix(0.04938271604938272,0,0,0.04938271604938272,36.44444444444445,0)" xlink:href="#bf"/><use transform="matrix(0.04938271604938272,0,0,0.04938271604938272,45.33333333333334,0)" xlink:href="#be"/><use transform="matrix(0.04938271604938272,0,0,0.04938271604938272,49.23456790123458,0)" xlink:href="#bg"/><use transform="matrix(0.04938271604938272,0,0,0.04938271604938272,59.111111111111114,0)" xlink:href="#aV"/><use transform="matrix(0.04938271604938272,0,0,0.04938271604938272,68.98765432098767,0)" xlink:href="#bh"/><use transform="matrix(0.04938271604938272,0,0,0.04938271604938272,78.86419753086422,0)" xlink:href="#aW"/></g><path fill="#3a414a" d="M68-38c1 34 0 65-14 84H32c9-13 17-26 17-46H33v-38h35" id="bi"/><g id="B"><use transform="matrix(0.04938271604938272,0,0,0.04938271604938272,0,0)" xlink:href="#R"/><use transform="matrix(0.04938271604938272,0,0,0.04938271604938272,11.851851851851853,0)" xlink:href="#S"/><use transform="matrix(0.04938271604938272,0,0,0.04938271604938272,23.703703703703706,0)" xlink:href="#bi"/></g><g id="C"><use transform="matrix(0.04938271604938272,0,0,0.04938271604938272,0,0)" xlink:href="#bd"/><use transform="matrix(0.04938271604938272,0,0,0.04938271604938272,10.814814814814815,0)" xlink:href="#S"/></g><path fill="#fff" d="M240 0l2-218c-23 76-54 145-80 218h-23L58-218 59 0H30v-248h44l77 211c21-75 51-140 76-211h43V0h-30" id="bj"/><path fill="#fff" d="M177-190C167-65 218 103 67 71c-23-6-38-20-44-43l32-5c15 47 100 32 89-28v-30C133-14 115 1 83 1 29 1 15-40 15-95c0-56 16-97 71-98 29-1 48 16 59 35 1-10 0-23 2-32h30zM94-22c36 0 50-32 50-73 0-42-14-75-50-75-39 0-46 34-46 75s6 73 46 73" id="bk"/><g id="D"><use transform="matrix(0.04938271604938272,0,0,0.04938271604938272,0,0)" xlink:href="#bj"/><use transform="matrix(0.04938271604938272,0,0,0.04938271604938272,14.765432098765434,0)" xlink:href="#P"/><use transform="matrix(0.04938271604938272,0,0,0.04938271604938272,24.641975308641978,0)" xlink:href="#O"/><use transform="matrix(0.04938271604938272,0,0,0.04938271604938272,33.53086419753087,0)" xlink:href="#O"/><use transform="matrix(0.04938271604938272,0,0,0.04938271604938272,42.41975308641976,0)" xlink:href="#aV"/><use transform="matrix(0.04938271604938272,0,0,0.04938271604938272,52.2962962962963,0)" xlink:href="#bk"/><use transform="matrix(0.04938271604938272,0,0,0.04938271604938272,62.17283950617284,0)" xlink:href="#P"/></g><g id="E"><use transform="matrix(0.04938271604938272,0,0,0.04938271604938272,0,0)" xlink:href="#ad"/><use transform="matrix(0.04938271604938272,0,0,0.04938271604938272,14.765432098765434,0)" xlink:href="#V"/><use transform="matrix(0.04938271604938272,0,0,0.04938271604938272,24.641975308641978,0)" xlink:href="#U"/><use transform="matrix(0.04938271604938272,0,0,0.04938271604938272,33.53086419753087,0)" xlink:href="#U"/><use transform="matrix(0.04938271604938272,0,0,0.04938271604938272,42.41975308641976,0)" xlink:href="#ac"/><use transform="matrix(0.04938271604938272,0,0,0.04938271604938272,52.2962962962963,0)" xlink:href="#ae"/><use transform="matrix(0.04938271604938272,0,0,0.04938271604938272,62.17283950617284,0)" xlink:href="#V"/><use transform="matrix(0.04938271604938272,0,0,0.04938271604938272,72.0493827160494,0)" xlink:href="#X"/><use transform="matrix(0.04938271604938272,0,0,0.04938271604938272,81.92592592592594,0)" xlink:href="#Y"/><use transform="matrix(0.04938271604938272,0,0,0.04938271604938272,85.82716049382718,0)" xlink:href="#Z"/></g><g id="F"><use transform="matrix(0.04938271604938272,0,0,0.04938271604938272,0,0)" xlink:href="#ab"/><use transform="matrix(0.04938271604938272,0,0,0.04938271604938272,4.938271604938272,0)" xlink:href="#Y"/><use transform="matrix(0.04938271604938272,0,0,0.04938271604938272,8.839506172839506,0)" xlink:href="#ad"/><use transform="matrix(0.04938271604938272,0,0,0.04938271604938272,23.60493827160494,0)" xlink:href="#V"/><use transform="matrix(0.04938271604938272,0,0,0.04938271604938272,33.48148148148148,0)" xlink:href="#U"/><use transform="matrix(0.04938271604938272,0,0,0.04938271604938272,42.37037037037037,0)" xlink:href="#ab"/><use transform="matrix(0.04938271604938272,0,0,0.04938271604938272,47.30864197530864,0)" xlink:href="#ac"/><use transform="matrix(0.04938271604938272,0,0,0.04938271604938272,57.185185185185176,0)" xlink:href="#ad"/><use transform="matrix(0.04938271604938272,0,0,0.04938271604938272,71.95061728395062,0)" xlink:href="#bb"/></g><g id="G"><use transform="matrix(0.04938271604938272,0,0,0.04938271604938272,0,0)" xlink:href="#Z"/><use transform="matrix(0.04938271604938272,0,0,0.04938271604938272,9.876543209876544,0)" xlink:href="#ac"/><use transform="matrix(0.04938271604938272,0,0,0.04938271604938272,19.75308641975309,0)" xlink:href="#ab"/><use transform="matrix(0.04938271604938272,0,0,0.04938271604938272,24.69135802469136,0)" xlink:href="#V"/><use transform="matrix(0.04938271604938272,0,0,0.04938271604938272,34.567901234567906,0)" xlink:href="#ab"/><use transform="matrix(0.04938271604938272,0,0,0.04938271604938272,39.50617283950618,0)" xlink:href="#Y"/><use transform="matrix(0.04938271604938272,0,0,0.04938271604938272,43.40740740740741,0)" xlink:href="#ad"/><use transform="matrix(0.04938271604938272,0,0,0.04938271604938272,58.17283950617284,0)" xlink:href="#V"/></g><path fill="#fff" d="M210-169c-67 3-38 105-44 169h-31v-121c0-29-5-50-35-48C34-165 62-65 56 0H25l-1-190h30c1 10-1 24 2 32 10-44 99-50 107 0 11-21 27-35 58-36 85-2 47 119 55 194h-31v-121c0-29-5-49-35-48" id="bl"/><g id="H"><use transform="matrix(0.04938271604938272,0,0,0.04938271604938272,0,0)" xlink:href="#aT"/><use transform="matrix(0.04938271604938272,0,0,0.04938271604938272,12.790123456790125,0)" xlink:href="#ba"/><use transform="matrix(0.04938271604938272,0,0,0.04938271604938272,22.66666666666667,0)" xlink:href="#bl"/><use transform="matrix(0.04938271604938272,0,0,0.04938271604938272,37.4320987654321,0)" xlink:href="#bl"/><use transform="matrix(0.04938271604938272,0,0,0.04938271604938272,52.19753086419754,0)" xlink:href="#P"/><use transform="matrix(0.04938271604938272,0,0,0.04938271604938272,62.074074074074076,0)" xlink:href="#bh"/><use transform="matrix(0.04938271604938272,0,0,0.04938271604938272,71.95061728395062,0)" xlink:href="#aW"/></g><g id="I"><use transform="matrix(0.04938271604938272,0,0,0.04938271604938272,0,0)" xlink:href="#aX"/><use transform="matrix(0.04938271604938272,0,0,0.04938271604938272,8.88888888888889,0)" xlink:href="#bc"/><use transform="matrix(0.04938271604938272,0,0,0.04938271604938272,18.765432098765434,0)" xlink:href="#ad"/><use transform="matrix(0.04938271604938272,0,0,0.04938271604938272,33.53086419753087,0)" xlink:href="#ad"/><use transform="matrix(0.04938271604938272,0,0,0.04938271604938272,48.296296296296305,0)" xlink:href="#V"/><use transform="matrix(0.04938271604938272,0,0,0.04938271604938272,58.17283950617284,0)" xlink:href="#aa"/><use transform="matrix(0.04938271604938272,0,0,0.04938271604938272,68.0493827160494,0)" xlink:href="#ab"/><use transform="matrix(0.04938271604938272,0,0,0.04938271604938272,72.98765432098767,0)" xlink:href="#X"/><use transform="matrix(0.04938271604938272,0,0,0.04938271604938272,82.86419753086422,0)" xlink:href="#Y"/><use transform="matrix(0.04938271604938272,0,0,0.04938271604938272,86.76543209876546,0)" xlink:href="#Z"/></g><g id="J"><use transform="matrix(0.04938271604938272,0,0,0.04938271604938272,0,0)" xlink:href="#aX"/><use transform="matrix(0.04938271604938272,0,0,0.04938271604938272,8.88888888888889,0)" xlink:href="#bc"/><use transform="matrix(0.04938271604938272,0,0,0.04938271604938272,18.765432098765434,0)" xlink:href="#aa"/><use transform="matrix(0.04938271604938272,0,0,0.04938271604938272,28.641975308641978,0)" xlink:href="#ab"/><use transform="matrix(0.04938271604938272,0,0,0.04938271604938272,33.580246913580254,0)" xlink:href="#ac"/><use transform="matrix(0.04938271604938272,0,0,0.04938271604938272,43.4567901234568,0)" xlink:href="#Y"/><use transform="matrix(0.04938271604938272,0,0,0.04938271604938272,47.35802469135803,0)" xlink:href="#aa"/><use transform="matrix(0.04938271604938272,0,0,0.04938271604938272,57.23456790123457,0)" xlink:href="#U"/></g><g id="K"><use transform="matrix(0.04938271604938272,0,0,0.04938271604938272,0,0)" xlink:href="#aY"/><use transform="matrix(0.04938271604938272,0,0,0.04938271604938272,9.876543209876544,0)" xlink:href="#ac"/><use transform="matrix(0.04938271604938272,0,0,0.04938271604938272,19.75308641975309,0)" xlink:href="#U"/></g><g id="L"><use transform="matrix(0.04938271604938272,0,0,0.04938271604938272,0,0)" xlink:href="#Y"/><use transform="matrix(0.04938271604938272,0,0,0.04938271604938272,3.901234567901235,0)" xlink:href="#U"/></g><path fill="#3a414a" d="M143 0L79-87 56-68V0H24v-261h32v163l83-92h37l-77 82L181 0h-38" id="bm"/><g id="M"><use transform="matrix(0.04938271604938272,0,0,0.04938271604938272,0,0)" xlink:href="#ad"/><use transform="matrix(0.04938271604938272,0,0,0.04938271604938272,14.765432098765434,0)" xlink:href="#ac"/><use transform="matrix(0.04938271604938272,0,0,0.04938271604938272,24.641975308641978,0)" xlink:href="#bm"/><use transform="matrix(0.04938271604938272,0,0,0.04938271604938272,33.53086419753087,0)" xlink:href="#V"/><use transform="matrix(0.04938271604938272,0,0,0.04938271604938272,43.40740740740741,0)" xlink:href="#U"/></g></defs></g></svg>